<svg xmlns="http://www.w3.org/2000/svg" viewBox="0 0 800 1200" role="img" aria-labelledby="t d"><title id="t">Sahaj collection artwork</title><desc id="d">A relaxed Indian everyday-wear silhouette with natural cotton textures and earthy green tones.</desc><defs><linearGradient id="b" x1="0" y1="0" x2="1" y2="1"><stop stop-color="#263329"/><stop offset=".48" stop-color="#63705d"/><stop offset="1" stop-color="#c3a46c"/></linearGradient><pattern id="p" width="52" height="52" patternUnits="userSpaceOnUse"><path d="M0 26h52M26 0v52" stroke="#f3ead8" stroke-width="2" opacity=".24"/><circle cx="26" cy="26" r="5" fill="#f3ead8" opacity=".55"/></pattern></defs><rect width="800" height="1200" fill="url(#b)"/><path d="M0 850C190 715 365 768 800 620v580H0Z" fill="#d4ba88" opacity=".3"/><g transform="translate(90 90)"><ellipse cx="310" cy="150" rx="88" ry="108" fill="#a76b4e"/><path d="M216 145c8-117 191-142 225 5 12 53-11 103-45 130-2-70-30-122-90-132-39-7-72 12-100 58Z" fill="#201b18"/><path d="M166 286c83-61 217-60 293 3 77 65 83 188 106 365 20 158 43 292 68 450H19c24-151 50-301 70-448 21-162 13-296 77-370Z" fill="#e7dfcf"/><path d="M92 433h470v598H65c24-178 38-386 27-598Z" fill="url(#p)"/><path d="M155 310c89 34 187 109 256 205" fill="none" stroke="#7c8a70" stroke-width="31"/></g><text x="48" y="1130" fill="#fff" font-family="Georgia,serif" font-size="27" letter-spacing="8">SAHAJ · सहज</text></svg>
